<?xml version="1.0" encoding="utf-8"?>
<!-- Generator: Adobe Illustrator 16.0.4, SVG Export Plug-In . SVG Version: 6.00 Build 0)  -->
<!DOCTYPE svg PUBLIC "-//W3C//DTD SVG 1.1//EN" "http://www.w3.org/Graphics/SVG/1.1/DTD/svg11.dtd">
<svg version="1.1" id="Layer_1" xmlns="http://www.w3.org/2000/svg" xmlns:xlink="http://www.w3.org/1999/xlink" x="0px" y="0px"
	 width="193.782px" height="50.96px" viewBox="0 -1.04 193.782 50.96" enable-background="new 0 -1.04 193.782 50.96"
	 xml:space="preserve">
<g enable-background="new    ">
	<path fill="#010101" d="M2.596,39.705h-1.05l0.3-1.409h1.05l0.195-0.915c0.309-1.455,1.236-1.936,2.571-1.936
		c0.375,0,0.732,0.016,1.1,0.045l-0.312,1.471c-0.132-0.016-0.267-0.016-0.401-0.016c-0.585,0-0.833,0.181-0.932,0.646l-0.15,0.705
		h1.2l-0.3,1.409h-1.2l-1.416,6.66H1.18L2.596,39.705z"/>
	<path fill="#010101" d="M9.511,45.42h-0.03c-0.604,0.795-1.43,1.155-2.3,1.155c-1.29,0-1.905-0.705-1.567-2.295l1.272-5.984h2.07
		L7.773,43.86c-0.172,0.81,0.031,1.125,0.646,1.125c0.705,0,1.187-0.435,1.378-1.335l1.139-5.354h2.07l-1.716,8.069H9.31
		L9.511,45.42z"/>
	<path fill="#010101" d="M15.022,35.655h2.07l-2.277,10.71h-2.07L15.022,35.655z"/>
	<path fill="#010101" d="M18.622,35.655h2.07l-2.277,10.71h-2.07L18.622,35.655z"/>
	<path fill="#010101" d="M25.179,41.146l-0.376,1.77h-4.229l0.376-1.77H25.179z"/>
	<path fill="#010101" d="M27.496,43.726l-0.057,0.27c-0.15,0.705,0.126,1.17,0.831,1.17c0.63,0,1.117-0.314,1.254-0.96
		c0.112-0.524-0.182-0.765-0.555-0.915l-1.343-0.524c-1.054-0.405-1.489-1.11-1.247-2.25c0.284-1.335,1.356-2.43,3.486-2.43
		c1.875,0,2.581,0.84,2.272,2.295l-0.07,0.33h-1.86c0.172-0.811,0.019-1.216-0.657-1.216c-0.525,0-1.039,0.301-1.16,0.87
		c-0.083,0.391,0.057,0.721,0.699,0.945l1.156,0.42c1.212,0.435,1.552,1.095,1.294,2.31c-0.36,1.695-1.799,2.535-3.539,2.535
		c-2.325,0-2.753-1.02-2.424-2.564l0.061-0.285H27.496z"/>
	<path fill="#010101" d="M34.736,35.985h2.07l-0.491,2.311h1.2l-0.3,1.409h-1.2l-0.928,4.365c-0.134,0.63-0.053,0.885,0.547,0.885
		c0.165,0,0.333-0.015,0.471-0.029l-0.306,1.439c-0.459,0.045-0.889,0.09-1.369,0.09c-1.62,0-1.814-0.495-1.467-2.13l0.982-4.62
		h-1.05l0.3-1.409h1.05L34.736,35.985z"/>
	<path fill="#010101" d="M37.694,40.771l0.042-0.195c0.396-1.859,1.805-2.489,3.364-2.489c2.46,0,2.708,1.02,2.399,2.475
		l-0.902,4.245c-0.16,0.75-0.188,1.095-0.077,1.56h-1.98c-0.081-0.255-0.074-0.57-0.077-0.84h-0.03
		c-0.659,0.84-1.288,1.05-2.278,1.05c-1.44,0-1.688-1.229-1.459-2.31c0.322-1.516,1.068-2.13,2.576-2.521l1.237-0.314
		c0.65-0.165,0.911-0.405,1.026-0.945c0.131-0.615-0.06-0.99-0.75-0.99c-0.63,0-1.049,0.42-1.183,1.051l-0.048,0.225H37.694z
		 M41.142,42.33c-0.33,0.21-0.703,0.346-0.971,0.405c-0.878,0.18-1.294,0.585-1.448,1.305c-0.13,0.615-0.014,1.125,0.541,1.125
		c0.555,0,1.352-0.359,1.54-1.245L41.142,42.33z"/>
	<path fill="#010101" d="M48.716,41.205c0.166-0.779,0.194-1.619-0.585-1.619c-1.02,0-1.376,0.899-1.772,2.76
		c-0.424,1.994-0.419,2.819,0.511,2.819c0.69,0,1.129-0.585,1.407-1.89h1.98c-0.45,2.115-1.587,3.3-3.777,3.3
		c-2.07,0-2.876-1.005-2.187-4.245c0.705-3.314,2.267-4.244,4.172-4.244c1.905,0,2.636,1.215,2.231,3.119H48.716z"/>
	<path fill="#010101" d="M55.101,35.655l-1.202,5.655h0.03l2.726-3.015h2.28l-3.001,3.18l1.63,4.89h-2.28l-1.021-3.314l-0.939,0.96
		l-0.5,2.354h-2.07l2.277-10.71H55.101z"/>
</g>
<g enable-background="new    ">
	<path fill="#010101" d="M66.176,45.511h-0.03c-0.609,0.749-1.246,1.064-2.056,1.064c-1.695,0-2.21-1.245-1.572-4.245
		c0.638-3,1.682-4.244,3.377-4.244c0.78,0,1.238,0.314,1.536,0.96h0.03l0.721-3.391h2.07l-2.277,10.71h-1.98L66.176,45.511z
		 M65.103,44.985c0.915,0,1.286-0.9,1.659-2.655s0.384-2.654-0.53-2.654c-0.9,0-1.271,0.899-1.645,2.654
		S64.202,44.985,65.103,44.985z"/>
	<path fill="#010101" d="M71.915,42.646l-0.137,0.645c-0.201,0.945-0.144,1.875,0.621,1.875c0.69,0,1.087-0.524,1.417-1.515h1.86
		c-0.474,1.875-1.597,2.925-3.546,2.925c-3,0-2.629-2.31-2.202-4.319c0.459-2.16,1.307-4.17,4.097-4.17
		c2.415,0,2.61,1.619,2.084,4.095l-0.099,0.465H71.915z M74.292,41.415c0.216-1.229,0.213-1.92-0.642-1.92
		c-0.825,0-1.247,0.855-1.406,1.605l-0.067,0.314H74.292z"/>
	<path fill="#010101" d="M81.84,38.296h2.07l-3.74,8.069h-2.4L77.4,38.296h2.16l-0.073,5.774h0.03L81.84,38.296z"/>
	<path fill="#010101" d="M85.52,42.646l-0.137,0.645c-0.201,0.945-0.144,1.875,0.621,1.875c0.69,0,1.087-0.524,1.417-1.515h1.86
		c-0.474,1.875-1.597,2.925-3.546,2.925c-3,0-2.629-2.31-2.202-4.319c0.459-2.16,1.307-4.17,4.097-4.17
		c2.415,0,2.61,1.619,2.084,4.095l-0.099,0.465H85.52z M87.896,41.415c0.216-1.229,0.213-1.92-0.642-1.92
		c-0.825,0-1.247,0.855-1.406,1.605l-0.067,0.314H87.896z"/>
	<path fill="#010101" d="M92.256,35.655h2.07l-2.277,10.71h-2.07L92.256,35.655z"/>
	<path fill="#010101" d="M98.174,38.086c2.5-0.045,2.874,1.439,2.277,4.244c-0.586,2.76-1.712,4.245-4.082,4.245
		c-2.5,0.045-2.874-1.439-2.277-4.245C94.678,39.57,95.804,38.086,98.174,38.086z M96.669,45.165c0.84,0,1.285-0.825,1.713-2.835
		c0.427-2.01,0.333-2.835-0.507-2.835c-1.021,0-1.362,1.186-1.713,2.835C95.811,43.98,95.649,45.165,96.669,45.165z"/>
	<path fill="#010101" d="M102.42,38.296h1.98l-0.183,0.854h0.03c0.609-0.75,1.246-1.064,2.057-1.064c1.695,0,2.21,1.244,1.572,4.244
		c-0.639,3-1.683,4.245-3.377,4.245c-0.781,0-1.238-0.315-1.537-0.96h-0.029l-0.721,3.39h-2.07L102.42,38.296z M104.162,44.985
		c0.9,0,1.271-0.9,1.645-2.655s0.385-2.654-0.516-2.654c-0.914,0-1.286,0.899-1.659,2.654S103.248,44.985,104.162,44.985z"/>
	<path fill="#010101" d="M110.765,42.646l-0.138,0.645c-0.201,0.945-0.144,1.875,0.621,1.875c0.69,0,1.087-0.524,1.417-1.515h1.859
		c-0.473,1.875-1.596,2.925-3.546,2.925c-3,0-2.629-2.31-2.202-4.319c0.46-2.16,1.307-4.17,4.098-4.17
		c2.414,0,2.609,1.619,2.084,4.095l-0.1,0.465H110.765z M113.141,41.415c0.216-1.229,0.213-1.92-0.642-1.92
		c-0.825,0-1.247,0.855-1.406,1.605l-0.067,0.314H113.141z"/>
	<path fill="#010101" d="M116.865,38.296h1.979l-0.229,1.08h0.029c0.586-0.78,1.279-1.29,2.135-1.29
		c0.119,0,0.252,0.015,0.369,0.029l-0.422,1.98c-0.207-0.016-0.428-0.03-0.639-0.03c-0.72,0-1.609,0.375-1.839,1.455l-1.03,4.845
		h-2.07L116.865,38.296z"/>
</g>
<g enable-background="new    ">
	<path fill="#8A9298" d="M5.89,18.009v1.634c0,2.394,0.646,4.75,2.583,4.75c1.748,0,2.47-1.33,2.774-3.838h4.711
		c-0.19,4.749-2.47,7.409-7.409,7.409c-7.599,0-7.903-5.852-7.903-10.942c0-5.472,1.064-10.562,8.131-10.562
		c6.117,0,7.485,4.104,7.485,10.372v1.178H5.89z M11.247,14.894c-0.114-3.115-0.494-4.863-2.66-4.863
		c-2.09,0-2.698,2.166-2.698,4.065v0.798H11.247z"/>
	<path fill="#8A9298" d="M19,6.99h5.016v2.736h0.076c1.064-1.976,2.546-3.268,4.711-3.268c0.304,0,0.646,0.038,0.95,0.076v5.015
		c-0.532-0.038-1.102-0.076-1.634-0.076c-1.824,0-3.875,0.95-3.875,3.686v12.272H19V6.99z"/>
	<path fill="#8A9298" d="M31.844,0h5.244v4.483h-5.244V0z M31.844,6.99h5.244v20.441h-5.244V6.99z"/>
	<path fill="#8A9298" d="M50.615,14.361c0-1.976-0.38-4.104-2.356-4.104c-2.583,0-3.001,2.28-3.001,6.991
		c0,5.054,0.456,7.144,2.812,7.144c1.748,0,2.546-1.482,2.546-4.788h5.015c0,5.357-2.242,8.359-7.789,8.359
		c-5.243,0-7.827-2.546-7.827-10.753c0-8.396,3.458-10.752,8.283-10.752s7.333,3.077,7.333,7.902H50.615z"/>
</g>
<g enable-background="new    ">
	<path fill="#010101" d="M63.063,6.992h5.016v2.395h0.076c1.102-2.014,3.001-2.926,5.206-2.926c3.267,0,5.205,1.785,5.205,5.812
		v15.16h-5.243V13.338c0-2.052-0.684-2.85-2.242-2.85c-1.786,0-2.773,1.102-2.773,3.381v13.564h-5.244V6.992z"/>
	<path fill="#010101" d="M89.434,6.461c6.307-0.114,8.055,3.647,8.055,10.752c0,6.991-2.052,10.753-8.055,10.753
		c-6.307,0.113-8.055-3.647-8.055-10.753C81.38,10.222,83.431,6.461,89.434,6.461z M89.434,24.395c2.127,0,2.812-2.09,2.812-7.182
		c0-5.091-0.684-7.181-2.812-7.181c-2.583,0-2.812,3.002-2.812,7.181C86.623,21.393,86.851,24.395,89.434,24.395z"/>
	<path fill="#010101" d="M100.302,6.992h5.016v2.736h0.076c1.064-1.976,2.546-3.268,4.711-3.268c0.305,0,0.646,0.038,0.95,0.076
		v5.015c-0.532-0.038-1.102-0.076-1.634-0.076c-1.824,0-3.875,0.95-3.875,3.686v12.272h-5.244V6.992z"/>
	<path fill="#010101" d="M122.798,14.363c0-1.976-0.38-4.104-2.356-4.104c-2.583,0-3.001,2.28-3.001,6.991
		c0,5.054,0.456,7.144,2.812,7.144c1.748,0,2.546-1.482,2.546-4.788h5.015c0,5.357-2.241,8.359-7.789,8.359
		c-5.242,0-7.826-2.546-7.826-10.753c0-8.396,3.457-10.752,8.283-10.752c4.824,0,7.332,3.077,7.332,7.902H122.798z"/>
	<path fill="#010101" d="M130.551,6.992h5.016v2.736h0.076c1.063-1.976,2.545-3.268,4.711-3.268c0.305,0,0.646,0.038,0.949,0.076
		v5.015c-0.531-0.038-1.102-0.076-1.633-0.076c-1.824,0-3.875,0.95-3.875,3.686v12.272h-5.244V6.992z"/>
	<path fill="#010101" d="M150.576,6.461c6.307-0.114,8.055,3.647,8.055,10.752c0,6.991-2.053,10.753-8.055,10.753
		c-6.308,0.113-8.055-3.647-8.055-10.753C142.521,10.222,144.572,6.461,150.576,6.461z M150.576,24.395
		c2.127,0,2.811-2.09,2.811-7.182c0-5.091-0.684-7.181-2.811-7.181c-2.584,0-2.812,3.002-2.812,7.181
		C147.763,21.393,147.992,24.395,150.576,24.395z"/>
	<path fill="#010101" d="M165.281,20.746v0.685c0,1.785,0.951,2.964,2.736,2.964c1.596,0,2.66-0.799,2.66-2.432
		c0-1.33-0.875-1.938-1.9-2.318l-3.686-1.33c-2.887-1.025-4.369-2.812-4.369-5.698c0-3.382,2.127-6.155,7.523-6.155
		c4.748,0,6.99,2.127,6.99,5.812v0.836h-4.711c0-2.052-0.607-3.077-2.318-3.077c-1.329,0-2.469,0.76-2.469,2.204
		c0,0.987,0.531,1.823,2.279,2.394l3.153,1.063c3.306,1.102,4.521,2.773,4.521,5.852c0,4.293-3.191,6.421-7.599,6.421
		c-5.889,0-7.523-2.584-7.523-6.497v-0.723H165.281z"/>
	<path fill="#010101" d="M182.153,20.746v0.685c0,1.785,0.95,2.964,2.735,2.964c1.596,0,2.66-0.799,2.66-2.432
		c0-1.33-0.874-1.938-1.9-2.318l-3.686-1.33c-2.887-1.025-4.369-2.812-4.369-5.698c0-3.382,2.128-6.155,7.523-6.155
		c4.749,0,6.99,2.127,6.99,5.812v0.836h-4.711c0-2.052-0.607-3.077-2.317-3.077c-1.329,0-2.47,0.76-2.47,2.204
		c0,0.987,0.532,1.823,2.279,2.394l3.154,1.063c3.305,1.102,4.521,2.773,4.521,5.852c0,4.293-3.191,6.421-7.6,6.421
		c-5.889,0-7.522-2.584-7.522-6.497v-0.723H182.153z"/>
</g>
</svg>
